# AST/ASF file generated using VICON BodyLanguage
# -----------------------------------------------
:version 1.10
:name VICON
:units
  mass 1.0
  length 0.45
  angle deg
:documentation
   .ast/.asf automatically generated from VICON data using
   VICON BodyBuilder and BodyLanguage model FoxedUp or BRILLIANT.MOD
:root
   order TX TY TZ RX RY RZ
   axis XYZ
   position 0 0 0  
   orientation 0 0 0 
:bonedata
  begin
     id 1 
     name lhipjoint
     direction 0.567149 -0.783011 0.255413 
     length 2.28399 
     axis 0 0 0  XYZ
  end
  begin
     id 2 
     name lfemur
     direction 0.34202 -0.939693 0  
     length 7.34031  
     axis 0 0 20  XYZ
    dof rx ry rz
    limits (-160.0 20.0)
           (-70.0 70.0)
           (-60.0 70.0)
  end
  begin
     id 3 
     name ltibia
     direction 0.34202 -0.939693 0   
     length 6.9833   
     axis 0 0 20   XYZ
    dof rx
    limits (-10.0 170.0)
  end
  begin
     id 4 
     name lfoot
     direction 0.136498 -0.375025 0.91691   
     length 2.33665   
     axis -90 7.62852e-016 20   XYZ
    dof rx rz
    limits (-45.0 90.0)
           (-70.0 20.0)
  end
  begin
     id 5 
     name ltoes
     direction 1.5367e-011 -4.21617e-011 1   
     length 1.15039   
     axis -90 7.62852e-016 20   XYZ
    dof rx
    limits (-90.0 20.0)
  end
  begin
     id 6 
     name rhipjoint
     direction -0.602854 -0.758518 0.247423   
     length 2.35775  
     axis 0 0 0  XYZ 
  end
  begin
     id 7 
     name rfemur
     direction -0.34202 -0.939693 0   
     length 7.43932   
     axis 0 0 -20   XYZ
    dof rx ry rz
    limits (-160.0 20.0)
           (-70.0 70.0)
           (-70.0 60.0)
  end
  begin
     id 8 
     name rtibia
     direction -0.34202 -0.939693 0   
     length 7.11893   
     axis 0 0 -20   XYZ
    dof rx
    limits (-10.0 170.0)
 end
 begin
     id 9 
     name rfoot
     direction -0.131771 -0.362037 0.922803   
     length 2.53019  
     axis -90 -7.62852e-016 -20   XYZ
    dof rx rz
    limits (-45.0 90.0)
           (-20.0 70.0)
  end
  begin
     id 10 
     name rtoes
     direction -1.53733e-011 -4.21932e-011 1   
     length 1.24596   
     axis -90 -7.62852e-016 -20   XYZ
    dof rx
    limits (-90.0 20.0)
  end
  begin
     id 11 
     name lowerback
     direction 0.0235427 0.999023 -0.0374125   
     length 2.21768   
     axis 0 0 0   XYZ
    dof rx ry rz
    limits (-20.0 45.0)
           (-30.0 30.0)
           (-30.0 30.0)
  end
  begin
     id 12 
     name upperback
     direction 0.0302156 0.996818 -0.073759   
     length 2.20352   
     axis 0 0 0   XYZ
    dof rx ry rz
    limits (-20.0 45.0)
           (-30.0 30.0)
           (-30.0 30.0)
  end
  begin
     id 13 
     name thorax
     direction 0.0187169 0.998235 -0.0563532   
     length 2.22103   
     axis 0 0 0   XYZ
    dof rx ry rz
    limits (-20.0 45.0)
           (-30.0 30.0)
           (-30.0 30.0)
  end
  begin
     id 14 
     name lowerneck
     direction -0.119528 0.987423 0.103481   
     length 1.72948   
     axis 0 0 0   XYZ
    dof rx ry rz
    limits (-20.0 45.0)
           (-30.0 30.0)
           (-30.0 30.0)
  end
  begin
     id 15 
     name upperneck
     direction 0.248049 0.963095 -0.104496   
     length 1.74979   
     axis 0 0 0   XYZ
    dof rx ry rz
    limits (-20.0 45.0)
           (-30.0 30.0)
           (-30.0 30.0)
  end
  begin
     id 16
     name head
     direction 0.0903589 0.994284 -0.056876  
     length 1.78268  
     axis 0 0 0   XYZ
    dof rx ry rz
    limits (-20.0 45.0)
           (-30.0 30.0)
           (-30.0 30.0)
  end
  begin
     id 17 
     name lclavicle
     direction 0.946008 0.242039 -0.215608  
     length 3.80783  
     axis 0 0 0   XYZ
    dof ry rz
    limits (-20.0 10.0)
           (0.0 20.0)
  end
  begin
     id 18 
     name lhumerus
     direction 1 -4.48991e-011 -2.25695e-027   
     length 4.83125   
     axis 180 -30 -90   XYZ
    dof rx ry rz
    limits (-60.0 90.0)
           (-90.0 90.0)
           (-90.0 90.0)
  end
  begin
     id 19
     name lradius
     direction 0.999991 0.00366712 -0.00211721   
     length 3.00391   
     axis 180 -30 -90   XYZ
    dof rx
    limits (-10.0 170.0)
  end
  begin
     id 20
     name lwrist
     direction 0.999991 0.00393016 -0.00141978   
     length 1.50195   
     axis -1.00488e-014 90 90   XYZ
    dof ry
    limits (-180.0 0.0)
 end
  begin
     id 21 
     name lhand
     direction 1 -4.49123e-011 2.72098e-026   
     length 1.2717   
     axis -1.73687e-014 90 90   XYZ
    dof rx rz
    limits (-90.0 90.0)
           (-45.0 45.0)
  end
  begin
     id 22 
     name lfingers
     direction 1 -4.48678e-011 5.4479e-026   
     length 1.02528   
     axis -3.47372e-014 90 90   XYZ
    dof rx
    limits (0.0 90.0)
  end
  begin
     id 23
     name lthumb
     direction 0.707107 -6.34851e-011 0.707107   
     length 1.4721   
     axis -90 45 -1.62303e-014   XYZ
    dof rx rz
    limits (-45.0 45.0)
           (-45.0 45.0)
  end
  begin
     id 24 
     name rclavicle
     direction -0.981723 0.189447 -0.0181673   
     length 3.74989  
     axis 0 0 0   XYZ 
    dof ry rz
    limits (-10.0 20.0)
           (-20.0 0.0)
  end
  begin
     id 25 
     name rhumerus
     direction -1 -4.48985e-011 2.38206e-027  
     length 4.61118   
     axis 180 30 90   XYZ
    dof rx ry rz
    limits (-90.0 60.0)
           (-90.0 90.0)
           (-90.0 90.0)
  end
  begin
     id 26 
     name rradius
     direction -1 -4.48977e-011 7.41019e-027   
     length 2.91491   
     axis 180 30 90   XYZ
    dof rx
    limits (-10.0 170.0)
  end
  begin
     id 27 
     name rwrist
     direction -1 -4.48549e-011 1.3624e-026   
     length 1.45745   
     axis -1.00488e-014 -90 -90   XYZ
    dof ry
    limits (-180.0 0.0)
  end
  begin
     id 28
     name rhand
     direction -1 -4.49107e-011 2.72109e-026   
     length 1.30769   
     axis -1.73687e-014 -90 -90   XYZ
    dof rx rz
    limits (-90.0 90.0)
           (-45.0 45.0)
  end
  begin
     id 29
     name rfingers
     direction -1 -4.48919e-011 5.44468e-026   
     length 1.05429   
     axis -3.47372e-014 -90 -90   XYZ
    dof rx
    limits (0.0 90.0)
  end
  begin
     id 30
     name rthumb
     direction -0.707107 -6.35315e-011 0.707107   
     length 1.51376   
     axis -90 -45 1.62303e-014   XYZ
    dof rx rz
    limits (-45.0 45.0)
           (-45.0 45.0)
  end
:hierarchy
  begin
    root lhipjoint rhipjoint lowerback
    lhipjoint lfemur
    lfemur ltibia
    ltibia lfoot
    lfoot ltoes
    rhipjoint rfemur
    rfemur rtibia
    rtibia rfoot
    rfoot rtoes
    lowerback upperback
    upperback thorax
    thorax lowerneck lclavicle rclavicle
    lowerneck upperneck
    upperneck head
    lclavicle lhumerus
    lhumerus lradius
    lradius lwrist
    lwrist lhand lthumb
    lhand lfingers
    rclavicle rhumerus
    rhumerus rradius
    rradius rwrist
    rwrist rhand rthumb
    rhand rfingers
  end

#!OML:ASF X:\für Bonn\!DataBase\2005_08_11_Bastian_Final\c3d\Bastian.ASF
:FULLY-SPECIFIED
:DEGREES
16
root -10.2821 17.5513 9.8954 897.723 35.5381 -169.133
lowerback 27.2322 -5.66377 6.37035
upperback 18.3729 -1.40811 6.81152
thorax 5.76115 1.2366 4.49835
lowerneck -17.0237 -10.7899 -20.2647
upperneck -7.44367 -10.2174 24.5061
head 3.24158 -3.71732 10.3407
rclavicle -1.59028e-015 1.46306e-013
rhumerus -15.9857 7.00826 -79.0979
rradius 56.0733
rwrist 1.42895
rhand -20.5375 4.95211
rfingers 7.12502
rthumb 5.82086 -24.9479
lclavicle -1.59028e-015 1.46306e-013
lhumerus -14.9397 -16.7707 90.9165
lradius 23.7744
lwrist 15.2489
lhand -13.703 -8.04738
lfingers 7.12502
lthumb 12.4155 21.5639
rfemur -3.63648 -13.4991 29.8095
rtibia 42.4363
rfoot -11.2047 12.8171
rtoes -10.4918
lfemur -29.7175 4.092 -9.37552
ltibia 55.4574
lfoot 5.28962 -12.9945
ltoes -29.1452
17
root -10.227 17.5501 9.83707 897.699 35.6765 -169.083
lowerback 27.1628 -5.58223 6.32022
upperback 18.4079 -1.33 6.78684
thorax 5.83178 1.27278 4.48169
lowerneck -17.0169 -10.7785 -20.2158
upperneck -7.41217 -10.2174 24.4599
head 3.24231 -3.72027 10.3152
rclavicle -6.67916e-014 1.66979e-014
rhumerus -15.8032 7.20006 -79.2146
rradius 56.6441
rwrist 1.49385
rhand -20.6435 5.03219
rfingers 7.12502
rthumb 5.71858 -24.8706
lclavicle -6.67916e-014 1.66979e-014
lhumerus -15.2176 -16.9571 91.0082
lradius 23.6498
lwrist 15.2089
lhand -13.5877 -8.14566
lfingers 7.12502
lthumb 12.5266 21.4588
rfemur -3.09066 -13.2426 29.9102
rtibia 42.0901
rfoot -11.3692 12.5299
rtoes -10.6278
lfemur -29.8232 4.27577 -9.51982
ltibia 54.0461
lfoot 5.87414 -12.8534
ltoes -30.2435
18
root -10.1709 17.5492 9.77855 897.651 35.8095 -169.06
lowerback 27.0772 -5.49069 6.24011
upperback 18.4533 -1.24687 6.75614
thorax 5.92292 1.30968 4.47466
lowerneck -17.1008 -10.8107 -20.2018
upperneck -7.31922 -10.2652 24.4261
head 3.28793 -3.73917 10.2907
rclavicle -2.46493e-014 -5.40694e-014
rhumerus -15.6344 7.41732 -79.3418
rradius 57.214
rwrist 1.52873
rhand -20.7432 5.09617
rfingers 7.12502
rthumb 5.62228 -24.8092
lclavicle -2.46493e-014 -5.40694e-014
lhumerus -15.4491 -17.1556 91.0871
lradius 23.4832
lwrist 15.1606
lhand -13.4644 -8.29456
lfingers 7.12502
lthumb 12.6455 21.3026
rfemur -2.53161 -12.9843 29.9903
rtibia 41.7393
rfoot -11.5514 12.2486
rtoes -10.8681
lfemur -29.8933 4.39247 -9.66688
ltibia 52.65
lfoot 6.48981 -12.5611
ltoes -31.3161
19
root -10.1152 17.5462 9.71865 897.645 35.9475 -169.013
lowerback 26.9345 -5.39741 6.17506
upperback 18.5044 -1.1681 6.72229
thorax 6.0468 1.34526 4.45675
lowerneck -17.2433 -10.8638 -20.2306
upperneck -7.19609 -10.3281 24.4304
head 3.36065 -3.75893 10.2838
rclavicle 7.87187e-014 -7.31528e-014
rhumerus -15.4651 7.69806 -79.4661
rradius 57.7953
rwrist 1.49918
rhand -20.7739 5.12115
rfingers 7.12502
rthumb 5.59263 -24.785
lclavicle 7.87187e-014 -7.31528e-014
lhumerus -15.6861 -17.3342 91.1533
lradius 23.3659
lwrist 15.0915
lhand -13.3077 -8.38012
lfingers 7.12502
lthumb 12.7966 21.2077
rfemur -1.99837 -12.7412 30.0929
rtibia 41.3885
rfoot -11.7469 11.9561
rtoes -11.1967
lfemur -29.9762 4.43787 -9.77595
ltibia 51.2757
lfoot 7.14266 -12.1226
ltoes -32.1663
20
root -10.0586 17.5424 9.65801 897.594 36.0637 -168.992
lowerback 26.806 -5.30275 6.07602
upperback 18.5548 -1.09031 6.69796
thorax 6.16473 1.37706 4.46949
lowerneck -17.3523 -10.9235 -20.3212
upperneck -7.09215 -10.393 24.464
head 3.42937 -3.78033 10.2988
rclavicle 4.37326e-014 4.85035e-014
rhumerus -15.3236 7.91478 -79.5669
rradius 58.3399
rwrist 1.55412
rhand -20.7459 5.21882
rfingers 7.12502
rthumb 5.61967 -24.6867
lclavicle 4.37326e-014 4.85035e-014
lhumerus -15.9209 -17.4192 91.2364
lradius 23.2531
lwrist 14.9551
lhand -13.1507 -8.46959
lfingers 7.12502
lthumb 12.948 21.1087
rfemur -1.42145 -12.5221 30.1659
rtibia 41.0464
rfoot -11.9727 11.6659
rtoes -11.5406
lfemur -30.0003 4.3496 -9.86971
ltibia 49.9224
lfoot 7.85 -11.4659
ltoes -32.7622
21
root -10.0021 17.5372 9.597 897.584 36.1978 -168.939
lowerback 26.6623 -5.2075 6.01465
upperback 18.5939 -1.01 6.66546
thorax 6.27461 1.41219 4.45061
lowerneck -17.4385 -10.9863 -20.4661
upperneck -6.99223 -10.4579 24.5638
head 3.50342 -3.80044 10.3478
rclavicle -4.21423e-014 -1.28812e-013
rhumerus -15.2142 8.096 -79.7029
rradius 58.9151
rwrist 1.57484
rhand -20.643 5.28585
rfingers 7.12502
rthumb 5.71905 -24.617
lclavicle -4.21423e-014 -1.28812e-013
lhumerus -16.2016 -17.5562 91.3278
lradius 23.2091
lwrist 14.8992
lhand -13.0434 -8.53825
lfingers 7.12502
lthumb 13.0514 21.0334
rfemur -0.88257 -12.3017 30.2682
rtibia 40.7112
rfoot -12.1777 11.4002
rtoes -11.7706
lfemur -30.0289 4.20278 -9.9054
ltibia 48.6035
lfoot 8.55248 -10.6906
ltoes -33.3435
22
root -9.94501 17.5289 9.53462 897.55 36.3136 -168.921
lowerback 26.4985 -5.12311 5.93578
upperback 18.6428 -0.949353 6.61473
thorax 6.40656 1.43732 4.42623
lowerneck -17.5546 -11.0531 -20.5421
upperneck -6.8926 -10.533 24.6113
head 3.57522 -3.82579 10.3635
rclavicle 4.77083e-015 -7.95139e-015
rhumerus -15.117 8.25409 -79.8547
rradius 59.468
rwrist 1.69091
rhand -20.4946 5.4909
rfingers 7.12502
rthumb 5.8623 -24.408
lclavicle 4.77083e-015 -7.95139e-015
lhumerus -16.4788 -17.6738 91.3926
lradius 23.2227
lwrist 14.8779
lhand -12.9745 -8.59452
lfingers 7.12502
lthumb 13.1178 20.9729
rfemur -0.329177 -12.107 30.329
rtibia 40.3794
rfoot -12.3818 11.1448
rtoes -12.0578
lfemur -30.0331 4.00039 -9.93173
ltibia 47.316
lfoot 9.29155 -9.80678
ltoes -33.5382
23
root -9.88761 17.5198 9.47112 897.508 36.4441 -168.904
lowerback 26.3211 -5.02187 5.8543
upperback 18.6889 -0.870468 6.56597
thorax 6.54085 1.4705 4.40176
lowerneck -17.5518 -11.0915 -20.624
upperneck -6.87263 -10.5781 24.6876
head 3.60286 -3.84399 10.3982
rclavicle 1.03368e-014 -7.31528e-014
rhumerus -15.025 8.4372 -80.0033
rradius 59.9496
rwrist 1.78856
rhand -20.4191 5.66423
rfingers 7.12502
rthumb 5.93523 -24.2326
lclavicle 1.03368e-014 -7.31528e-014
lhumerus -16.7582 -17.743 91.4663
lradius 23.2428
lwrist 14.8329
lhand -12.8923 -8.68387
lfingers 7.12502
lthumb 13.197 20.8784
rfemur 0.23966 -11.9071 30.3841
rtibia 40.0511
rfoot -12.5424 10.9215
rtoes -12.2299
lfemur -29.9985 3.75572 -9.91458
ltibia 46.0702
lfoot 9.99311 -8.85424
ltoes -33.5197
24
root -9.82986 17.5099 9.40625 897.472 36.5589 -168.885
lowerback 26.1299 -4.92596 5.75229
upperback 18.7343 -0.803677 6.52861
thorax 6.68252 1.49441 4.40472
lowerneck -17.6297 -11.1416 -20.7084
upperneck -6.76948 -10.6381 24.7425
head 3.66803 -3.86498 10.4212
rclavicle -1.51076e-014 -3.10104e-014
rhumerus -14.9511 8.72016 -80.1087
rradius 60.4223
rwrist 1.86427
rhand -20.2912 5.87199
rfingers 7.12502
rthumb 6.05873 -24.0214
lclavicle -1.51076e-014 -3.10104e-014
lhumerus -17.0765 -17.8298 91.5682
lradius 23.34
lwrist 14.8328
lhand -12.9172 -8.67672
lfingers 7.12502
lthumb 13.173 20.8871
rfemur 0.799323 -11.7228 30.439
rtibia 39.7328
rfoot -12.7543 10.6757
rtoes -12.5568
lfemur -29.9619 3.49258 -9.88151
ltibia 44.8618
lfoot 10.6924 -7.84606
ltoes -33.0939
25
root -9.77082 17.4979 9.34133 897.487 36.6707 -168.833
lowerback 25.8774 -4.81965 5.66685
upperback 18.7876 -0.72753 6.49901
thorax 6.86233 1.52401 4.40641
lowerneck -17.6529 -11.1917 -20.8126
upperneck -6.74043 -10.6914 24.826
head 3.7062 -3.88453 10.4606
rclavicle 7.07673e-014 2.38542e-015
rhumerus -14.8587 9.0126 -80.2014
rradius 60.8296
rwrist 1.97668
rhand -20.2104 6.09833
rfingers 7.12502
rthumb 6.13665 -23.7928
lclavicle 7.07673e-014 2.38542e-015
lhumerus -17.3483 -17.8492 91.6415
lradius 23.429
lwrist 14.8155
lhand -12.9213 -8.7186
lfingers 7.12502
lthumb 13.169 20.8455
rfemur 1.31796 -11.498 30.5389
rtibia 39.427
rfoot -12.9378 10.4297
rtoes -12.7347
lfemur -29.9451 3.17799 -9.77971
ltibia 43.7026
lfoot 11.3522 -6.78823
ltoes -32.1957
26
root -9.71145 17.4852 9.27505 897.429 36.7976 -168.852
lowerback 25.6823 -4.71176 5.55158
upperback 18.8255 -0.651637 6.4358
thorax 6.99586 1.55069 4.38593
lowerneck -17.6723 -11.251 -20.9436
upperneck -6.70252 -10.7571 24.9578
head 3.75599 -3.90853 10.5203
rclavicle -4.92986e-014 -5.08889e-014
rhumerus -14.8195 9.34393 -80.3133
rradius 61.23
rwrist 2.08835
rhand -20.1851 6.27808
rfingers 7.12502
rthumb 6.16115 -23.6123
lclavicle -4.92986e-014 -5.08889e-014
lhumerus -17.664 -17.8885 91.7029
lradius 23.5573
lwrist 14.8554
lhand -12.952 -8.72902
lfingers 7.12502
lthumb 13.1394 20.837
rfemur 1.87391 -11.2858 30.5614
rtibia 39.1434
rfoot -13.1515 10.2251
rtoes -12.9573
lfemur -29.865 2.84688 -9.7311
ltibia 42.5811
lfoot 11.9113 -5.88284
ltoes -31.7723
27
root -9.65192 17.4718 9.20891 897.443 36.9052 -168.798
lowerback 25.4669 -4.62217 5.52452
upperback 18.858 -0.583256 6.37246
thorax 7.13179 1.58276 4.31782
lowerneck -17.7412 -11.3433 -21.0974
upperneck -6.62425 -10.8627 25.0996
head 3.83647 -3.94788 10.5799
rclavicle 5.08889e-014 -6.91771e-014
rhumerus -14.7476 9.66309 -80.4206
rradius 61.5662
rwrist 2.21329
rhand -20.0793 6.46094
rfingers 7.12502
rthumb 6.26323 -23.4265
lclavicle 5.08889e-014 -6.91771e-014
lhumerus -17.9733 -18.0581 91.7552
lradius 23.7439
lwrist 14.9914
lhand -13.0532 -8.67266
lfingers 7.12502
lthumb 13.0419 20.8996
rfemur 2.38036 -11.0875 30.6568
rtibia 38.8808
rfoot -13.3638 10.0034
rtoes -13.3664
lfemur -29.8168 2.49505 -9.59564
ltibia 41.5067
lfoot 12.4052 -5.18895
ltoes -32.0408
28
root -9.59109 17.4589 9.14194 897.433 37.0108 -168.785
lowerback 25.2561 -4.52746 5.45694
upperback 18.8905 -0.515095 6.31292
thorax 7.26682 1.60997 4.27726
lowerneck -17.8159 -11.4479 -21.3093
upperneck -6.56088 -10.9705 25.2673
head 3.92035 -3.98571 10.659
rclavicle 5.96354e-014 -4.92986e-014
rhumerus -14.7044 9.99313 -80.4974
rradius 61.9325
rwrist 2.34128
rhand -19.9498 6.63619
rfingers 7.12502
rthumb 6.38827 -23.2475
lclavicle 5.96354e-014 -4.92986e-014
lhumerus -18.1962 -17.9826 91.8093
lradius 23.8144
lwrist 15.004
lhand -13.0911 -8.71951
lfingers 7.12502
lthumb 13.0054 20.8551
rfemur 2.88215 -10.887 30.7138
rtibia 38.6408
rfoot -13.6049 9.79456
rtoes -13.7396
lfemur -29.7448 2.13769 -9.49112
ltibia 40.4644
lfoot 12.8097 -4.81477
ltoes -33.1967
